<svg xmlns="http://www.w3.org/2000/svg" viewBox="0 0 600 160" fill="none">
  <!-- Background -->
  <rect width="600" height="160" rx="12" fill="#F8F7FF"/>
  <!-- Logomark (large) -->
  <rect x="24" y="28" width="20" height="56" rx="5" fill="#6366F1" opacity="0.25"/>
  <rect x="24" y="54" width="14" height="30" rx="4" fill="#6366F1"/>
  <path d="M40 68 L40 32 C40 29 42.5 26 46 26 C49 26 51 28 51 31 L51 42 L60 42 C63.5 42 66 44.5 66 47.5 C66 49 65.3 50.5 64 51.2 C65.3 52 66 53.5 66 55 C66 56.8 65 58.3 63.5 58.8 C64 59.5 64.3 60.5 64.3 61.5 C64.3 63.5 63 65 61.3 65.3 C61.7 66 62 67 62 68 C62 70 60.8 71.2 59 71.5 L48 71.5 C45.5 71.5 40 70 40 67 L40 68 Z" fill="#6366F1"/>
  <!-- Wordmark -->
  <text x="88" y="95" font-family="-apple-system, BlinkMacSystemFont, 'Segoe UI', sans-serif" font-weight="800" font-size="56" fill="#1a1a1a" letter-spacing="-2">Kudosy</text>
  <!-- Tagline -->
  <text x="90" y="122" font-family="-apple-system, BlinkMacSystemFont, 'Segoe UI', sans-serif" font-weight="400" font-size="17" fill="#6b7280">Automatic kudos, human-like timing</text>
</svg>
