<svg xmlns="http://www.w3.org/2000/svg" viewBox="0 0 40 40" fill="none">
  <!-- Kudosy logomark: thumbs-up icon -->
  <rect x="2" y="18" width="8" height="20" rx="3" fill="#6366F1"/>
  <path d="M12 26 L12 9 C12 7 14.2 5 17 5 C19.5 5 21 6.8 21 9 L21 16 L27.5 16 C30 16 32 17.8 32 20 C32 21 31.5 22 30.5 22.5 C31.5 23 32 24 32 25.2 C32 26.5 31 27.8 29.5 28.2 C30 28.8 30.2 29.8 30.2 30.5 C30.2 32.2 29 33.5 27.2 33.8 C27.5 34.5 27.8 35.2 27.8 36 C27.8 38 26.2 39 24.2 39 L15 39 C12.5 39 12 37 12 35 L12 26 Z" fill="#6366F1"/>
</svg>
